{
  "asset": {
    "version": "2.0",
    "generator": "babylon.js glTF exporter for 3dsmax 2023 v20240125.3"
  },
  "scene": 0,
  "scenes": [
    {
      "nodes": [
        0
      ]
    }
  ],
  "nodes": [
    {
      "children": [
        1,
        2,
        3,
        4,
        5,
        6
      ],
      "translation": [
        -2.08616257E-07,
        0.00100040389,
        -0.00100380182
      ],
      "name": "bathtub_cogedim_2023"
    },
    {
      "mesh": 0,
      "translation": [
        -0.0182593875,
        0.4176558,
        -0.8508601
      ],
      "rotation": [
        1.1520234E-07,
        -0.7071068,
        0.7071068,
        1.15202333E-07
      ],
      "name": "base_bathtub_cogedim",
      "extras": {
        "paramrenderwidth": 2048,
        "paramrenderheight": 2048,
        "paramfacecolor": [
          0.7058824,
          0.20784314,
          0.09019608
        ],
        "paramedgecolor": [
          1.0,
          0.7764706,
          0.0
        ],
        "paramedgewidth": 1
      }
    },
    {
      "mesh": 1,
      "translation": [
        -0.0182593577,
        0.274587363,
        -0.8508601
      ],
      "rotation": [
        1.1520234E-07,
        -0.7071068,
        0.7071068,
        1.15202333E-07
      ],
      "name": "panels_bathtub_cogedim"
    },
    {
      "mesh": 2,
      "translation": [
        1.491037E-07,
        -1.44355E-08,
        -0.9499998
      ],
      "rotation": [
        0.0,
        -1.509958E-07,
        0.0,
        1.0
      ],
      "name": "shadows_ground"
    },
    {
      "mesh": 3,
      "translation": [
        -0.120000079,
        1.6675,
        2.98023224E-07
      ],
      "rotation": [
        8.43216252E-09,
        -0.7071069,
        0.70710665,
        8.432165E-09
      ],
      "name": "shadows_wall"
    },
    {
      "mesh": 4,
      "translation": [
        0.0212445334,
        1.92305279,
        -0.219560549
      ],
      "rotation": [
        1.1520234E-07,
        -0.7071068,
        0.7071068,
        1.15202333E-07
      ],
      "name": "spray_bathtub_cogedim"
    },
    {
      "mesh": 5,
      "translation": [
        -0.0212996416,
        1.123298,
        -0.241014287
      ],
      "rotation": [
        1.1520234E-07,
        -0.7071068,
        0.7071068,
        1.15202333E-07
      ],
      "name": "tap_bathtub_cogedim",
      "extras": {
        "paramrenderwidth": 2048,
        "paramrenderheight": 2048,
        "paramfacecolor": [
          0.7058824,
          0.20784314,
          0.09019608
        ],
        "paramedgecolor": [
          1.0,
          0.7764706,
          0.0
        ],
        "paramedgewidth": 1
      }
    }
  ],
  "meshes": [
    {
      "primitives": [
        {
          "attributes": {
            "POSITION": 1,
            "NORMAL": 2,
            "TEXCOORD_0": 3,
            "TEXCOORD_1": 4
          },
          "indices": 0,
          "material": 0
        }
      ],
      "name": "base_bathtub_cogedim"
    },
    {
      "primitives": [
        {
          "attributes": {
            "POSITION": 6,
            "NORMAL": 7,
            "TEXCOORD_0": 8,
            "TEXCOORD_1": 9
          },
          "indices": 5,
          "material": 1
        }
      ],
      "name": "panels_bathtub_cogedim"
    },
    {
      "primitives": [
        {
          "attributes": {
            "POSITION": 11,
            "NORMAL": 12,
            "TEXCOORD_0": 13,
            "TEXCOORD_1": 14
          },
          "indices": 10,
          "material": 2
        }
      ],
      "name": "shadows_ground"
    },
    {
      "primitives": [
        {
          "attributes": {
            "POSITION": 16,
            "NORMAL": 17,
            "TEXCOORD_0": 18,
            "TEXCOORD_1": 19
          },
          "indices": 15,
          "material": 3
        }
      ],
      "name": "shadows_wall"
    },
    {
      "primitives": [
        {
          "attributes": {
            "POSITION": 21,
            "NORMAL": 22,
            "TEXCOORD_0": 23,
            "TEXCOORD_1": 24
          },
          "indices": 20,
          "material": 4
        }
      ],
      "name": "spray_bathtub_cogedim"
    },
    {
      "primitives": [
        {
          "attributes": {
            "POSITION": 26,
            "NORMAL": 27,
            "TEXCOORD_0": 28,
            "TEXCOORD_1": 29
          },
          "indices": 25,
          "material": 5
        }
      ],
      "name": "tap_bathtub_cogedim"
    }
  ],
  "accessors": [
    {
      "bufferView": 0,
      "componentType": 5123,
      "count": 1566,
      "type": "SCALAR",
      "name": "accessorIndices"
    },
    {
      "bufferView": 1,
      "componentType": 5126,
      "count": 489,
      "max": [
        0.349966377,
        0.850000262,
        0.160612345
      ],
      "min": [
        -0.349966377,
        -0.850000262,
        -0.16061233
      ],
      "type": "VEC3",
      "name": "accessorPositions"
    },
    {
      "bufferView": 1,
      "byteOffset": 5868,
      "componentType": 5126,
      "count": 489,
      "type": "VEC3",
      "name": "accessorNormals"
    },
    {
      "bufferView": 2,
      "componentType": 5126,
      "count": 489,
      "type": "VEC2",
      "name": "accessorUVs"
    },
    {
      "bufferView": 2,
      "byteOffset": 3912,
      "componentType": 5126,
      "count": 489,
      "type": "VEC2",
      "name": "accessorUV2s"
    },
    {
      "bufferView": 0,
      "byteOffset": 3132,
      "componentType": 5123,
      "count": 78,
      "type": "SCALAR",
      "name": "accessorIndices"
    },
    {
      "bufferView": 1,
      "byteOffset": 11736,
      "componentType": 5126,
      "count": 54,
      "max": [
        0.349966437,
        0.850000262,
        0.275212765
      ],
      "min": [
        -0.349966437,
        -0.850000262,
        -0.275212765
      ],
      "type": "VEC3",
      "name": "accessorPositions"
    },
    {
      "bufferView": 1,
      "byteOffset": 12384,
      "componentType": 5126,
      "count": 54,
      "type": "VEC3",
      "name": "accessorNormals"
    },
    {
      "bufferView": 2,
      "byteOffset": 7824,
      "componentType": 5126,
      "count": 54,
      "type": "VEC2",
      "name": "accessorUVs"
    },
    {
      "bufferView": 2,
      "byteOffset": 8256,
      "componentType": 5126,
      "count": 54,
      "type": "VEC2",
      "name": "accessorUV2s"
    },
    {
      "bufferView": 0,
      "byteOffset": 3288,
      "componentType": 5123,
      "count": 6,
      "type": "SCALAR",
      "name": "accessorIndices"
    },
    {
      "bufferView": 1,
      "byteOffset": 13032,
      "componentType": 5126,
      "count": 4,
      "max": [
        0.5999999,
        0.0,
        0.95
      ],
      "min": [
        -0.5999999,
        0.0,
        -0.95
      ],
      "type": "VEC3",
      "name": "accessorPositions"
    },
    {
      "bufferView": 1,
      "byteOffset": 13080,
      "componentType": 5126,
      "count": 4,
      "type": "VEC3",
      "name": "accessorNormals"
    },
    {
      "bufferView": 2,
      "byteOffset": 8688,
      "componentType": 5126,
      "count": 4,
      "type": "VEC2",
      "name": "accessorUVs"
    },
    {
      "bufferView": 2,
      "byteOffset": 8720,
      "componentType": 5126,
      "count": 4,
      "type": "VEC2",
      "name": "accessorUV2s"
    },
    {
      "bufferView": 0,
      "byteOffset": 3300,
      "componentType": 5123,
      "count": 6,
      "type": "SCALAR",
      "name": "accessorIndices"
    },
    {
      "bufferView": 1,
      "byteOffset": 13128,
      "componentType": 5126,
      "count": 4,
      "max": [
        0.479999959,
        3.6239E-08,
        1.6675
      ],
      "min": [
        -0.72,
        -3.24903567E-07,
        -0.632499933
      ],
      "type": "VEC3",
      "name": "accessorPositions"
    },
    {
      "bufferView": 1,
      "byteOffset": 13176,
      "componentType": 5126,
      "count": 4,
      "type": "VEC3",
      "name": "accessorNormals"
    },
    {
      "bufferView": 2,
      "byteOffset": 8752,
      "componentType": 5126,
      "count": 4,
      "type": "VEC2",
      "name": "accessorUVs"
    },
    {
      "bufferView": 2,
      "byteOffset": 8784,
      "componentType": 5126,
      "count": 4,
      "type": "VEC2",
      "name": "accessorUV2s"
    },
    {
      "bufferView": 0,
      "byteOffset": 3312,
      "componentType": 5123,
      "count": 174,
      "type": "SCALAR",
      "name": "accessorIndices"
    },
    {
      "bufferView": 1,
      "byteOffset": 13224,
      "componentType": 5126,
      "count": 170,
      "max": [
        0.04813707,
        0.0394316055,
        0.0276101772
      ],
      "min": [
        -0.04813707,
        -0.0394316055,
        -0.0276101772
      ],
      "type": "VEC3",
      "name": "accessorPositions"
    },
    {
      "bufferView": 1,
      "byteOffset": 15264,
      "componentType": 5126,
      "count": 170,
      "type": "VEC3",
      "name": "accessorNormals"
    },
    {
      "bufferView": 2,
      "byteOffset": 8816,
      "componentType": 5126,
      "count": 170,
      "type": "VEC2",
      "name": "accessorUVs"
    },
    {
      "bufferView": 2,
      "byteOffset": 10176,
      "componentType": 5126,
      "count": 170,
      "type": "VEC2",
      "name": "accessorUV2s"
    },
    {
      "bufferView": 0,
      "byteOffset": 3660,
      "componentType": 5123,
      "count": 10302,
      "type": "SCALAR",
      "name": "accessorIndices"
    },
    {
      "bufferView": 1,
      "byteOffset": 17304,
      "componentType": 5126,
      "count": 3618,
      "max": [
        0.17329213,
        0.246564925,
        0.8658521
      ],
      "min": [
        -0.17329213,
        -0.24656488,
        -0.8658521
      ],
      "type": "VEC3",
      "name": "accessorPositions"
    },
    {
      "bufferView": 1,
      "byteOffset": 60720,
      "componentType": 5126,
      "count": 3618,
      "type": "VEC3",
      "name": "accessorNormals"
    },
    {
      "bufferView": 2,
      "byteOffset": 11536,
      "componentType": 5126,
      "count": 3618,
      "type": "VEC2",
      "name": "accessorUVs"
    },
    {
      "bufferView": 2,
      "byteOffset": 40480,
      "componentType": 5126,
      "count": 3618,
      "type": "VEC2",
      "name": "accessorUV2s"
    }
  ],
  "bufferViews": [
    {
      "buffer": 0,
      "byteLength": 24264,
      "name": "bufferViewScalar"
    },
    {
      "buffer": 0,
      "byteOffset": 24264,
      "byteLength": 104136,
      "byteStride": 12,
      "name": "bufferViewFloatVec3"
    },
    {
      "buffer": 0,
      "byteOffset": 128400,
      "byteLength": 69424,
      "byteStride": 8,
      "name": "bufferViewFloatVec2"
    }
  ],
  "buffers": [
    {
      "uri": "bathtub_cogedim_2023.bin",
      "byteLength": 197824
    }
  ],
  "materials": [
    {
      "pbrMetallicRoughness": {
        "baseColorTexture": {
          "index": 0
        },
        "metallicFactor": 0.0
      },
      "doubleSided": true,
      "name": "ceramic",
      "extras": {
        "babylonSeparateCullingPass": false,
        "directIntensity": 1.0,
        "emissiveIntensity": 1.0,
        "environmentIntensity": 1.0,
        "specularIntensity": 1.0,
        "cameraContrast": 1.0,
        "lightmapTexture": {
          "name": "Lightmap-3_comp_light.jpg",
          "level": 1.0,
          "hasAlpha": true,
          "getAlphaFromRGB": false,
          "coordinatesMode": 0,
          "isCube": false,
          "uOffset": 0.0,
          "vOffset": 0.0,
          "uScale": 1.0,
          "vScale": 1.0,
          "uRotationCenter": 0.5,
          "vRotationCenter": 0.5,
          "wRotationCenter": 0.5,
          "invertY": false,
          "uAng": 0.0,
          "vAng": 0.0,
          "wAng": 0.0,
          "wrapU": 1,
          "wrapV": 1,
          "coordinatesIndex": 1,
          "isRenderTarget": false,
          "renderTargetSize": 0,
          "mirrorPlane": null,
          "renderList": null,
          "animations": [],
          "extensions": null,
          "samplingMode": 3
        }
      }
    },
    {
      "pbrMetallicRoughness": {
        "baseColorTexture": {
          "index": 1
        },
        "metallicFactor": 0.0
      },
      "doubleSided": true,
      "name": "melamine_white",
      "extras": {
        "babylonSeparateCullingPass": false,
        "directIntensity": 1.0,
        "emissiveIntensity": 1.0,
        "environmentIntensity": 1.0,
        "specularIntensity": 1.0,
        "cameraContrast": 1.0,
        "lightmapTexture": {
          "name": "Lightmap-0_comp_light.jpg",
          "level": 1.0,
          "hasAlpha": true,
          "getAlphaFromRGB": false,
          "coordinatesMode": 0,
          "isCube": false,
          "uOffset": 0.0,
          "vOffset": 0.0,
          "uScale": 1.0,
          "vScale": 1.0,
          "uRotationCenter": 0.5,
          "vRotationCenter": 0.5,
          "wRotationCenter": 0.5,
          "invertY": false,
          "uAng": 0.0,
          "vAng": 0.0,
          "wAng": 0.0,
          "wrapU": 1,
          "wrapV": 1,
          "coordinatesIndex": 1,
          "isRenderTarget": false,
          "renderTargetSize": 0,
          "mirrorPlane": null,
          "renderList": null,
          "animations": [],
          "extensions": null,
          "samplingMode": 3
        }
      }
    },
    {
      "pbrMetallicRoughness": {
        "metallicFactor": 0.0
      },
      "emissiveFactor": [
        0.364705861,
        0.364705831,
        0.3647059
      ],
      "alphaMode": "BLEND",
      "name": "shadows",
      "extras": {
        "babylonSeparateCullingPass": false,
        "directIntensity": 1.0,
        "emissiveIntensity": 1.0,
        "environmentIntensity": 1.0,
        "specularIntensity": 1.0,
        "cameraContrast": 1.0,
        "lightmapTexture": {
          "name": "Lightmap-2_comp_light.jpg",
          "level": 1.0,
          "hasAlpha": true,
          "getAlphaFromRGB": false,
          "coordinatesMode": 0,
          "isCube": false,
          "uOffset": 0.0,
          "vOffset": 0.0,
          "uScale": 1.0,
          "vScale": 1.0,
          "uRotationCenter": 0.5,
          "vRotationCenter": 0.5,
          "wRotationCenter": 0.5,
          "invertY": false,
          "uAng": 0.0,
          "vAng": 0.0,
          "wAng": 0.0,
          "wrapU": 1,
          "wrapV": 1,
          "coordinatesIndex": 1,
          "isRenderTarget": false,
          "renderTargetSize": 0,
          "mirrorPlane": null,
          "renderList": null,
          "animations": [],
          "extensions": null,
          "samplingMode": 3
        }
      }
    },
    {
      "pbrMetallicRoughness": {
        "metallicFactor": 0.0
      },
      "emissiveFactor": [
        0.364705861,
        0.364705831,
        0.3647059
      ],
      "alphaMode": "BLEND",
      "name": "shadows",
      "extras": {
        "babylonSeparateCullingPass": false,
        "directIntensity": 1.0,
        "emissiveIntensity": 1.0,
        "environmentIntensity": 1.0,
        "specularIntensity": 1.0,
        "cameraContrast": 1.0,
        "lightmapTexture": {
          "name": "Lightmap-1_comp_light.jpg",
          "level": 1.0,
          "hasAlpha": true,
          "getAlphaFromRGB": false,
          "coordinatesMode": 0,
          "isCube": false,
          "uOffset": 0.0,
          "vOffset": 0.0,
          "uScale": 1.0,
          "vScale": 1.0,
          "uRotationCenter": 0.5,
          "vRotationCenter": 0.5,
          "wRotationCenter": 0.5,
          "invertY": false,
          "uAng": 0.0,
          "vAng": 0.0,
          "wAng": 0.0,
          "wrapU": 1,
          "wrapV": 1,
          "coordinatesIndex": 1,
          "isRenderTarget": false,
          "renderTargetSize": 0,
          "mirrorPlane": null,
          "renderList": null,
          "animations": [],
          "extensions": null,
          "samplingMode": 3
        }
      }
    },
    {
      "pbrMetallicRoughness": {
        "baseColorTexture": {
          "index": 2
        },
        "metallicFactor": 0.0
      },
      "doubleSided": true,
      "name": "spray",
      "extras": {
        "babylonSeparateCullingPass": false,
        "directIntensity": 1.0,
        "emissiveIntensity": 1.0,
        "environmentIntensity": 1.0,
        "specularIntensity": 1.0,
        "cameraContrast": 1.0,
        "lightmapTexture": {
          "name": "Lightmap-0_comp_light.jpg",
          "level": 1.0,
          "hasAlpha": true,
          "getAlphaFromRGB": false,
          "coordinatesMode": 0,
          "isCube": false,
          "uOffset": 0.0,
          "vOffset": 0.0,
          "uScale": 1.0,
          "vScale": 1.0,
          "uRotationCenter": 0.5,
          "vRotationCenter": 0.5,
          "wRotationCenter": 0.5,
          "invertY": false,
          "uAng": 0.0,
          "vAng": 0.0,
          "wAng": 0.0,
          "wrapU": 1,
          "wrapV": 1,
          "coordinatesIndex": 1,
          "isRenderTarget": false,
          "renderTargetSize": 0,
          "mirrorPlane": null,
          "renderList": null,
          "animations": [],
          "extensions": null,
          "samplingMode": 3
        }
      }
    },
    {
      "pbrMetallicRoughness": {
        "baseColorTexture": {
          "index": 1
        },
        "roughnessFactor": 0.0
      },
      "doubleSided": true,
      "name": "chrome",
      "extras": {
        "babylonSeparateCullingPass": false,
        "directIntensity": 1.0,
        "emissiveIntensity": 1.0,
        "environmentIntensity": 1.0,
        "specularIntensity": 1.0,
        "cameraContrast": 1.0,
        "lightmapTexture": {
          "name": "Lightmap-1_comp_light.jpg",
          "level": 1.0,
          "hasAlpha": true,
          "getAlphaFromRGB": false,
          "coordinatesMode": 0,
          "isCube": false,
          "uOffset": 0.0,
          "vOffset": 0.0,
          "uScale": 1.0,
          "vScale": 1.0,
          "uRotationCenter": 0.5,
          "vRotationCenter": 0.5,
          "wRotationCenter": 0.5,
          "invertY": false,
          "uAng": 0.0,
          "vAng": 0.0,
          "wAng": 0.0,
          "wrapU": 1,
          "wrapV": 1,
          "coordinatesIndex": 1,
          "isRenderTarget": false,
          "renderTargetSize": 0,
          "mirrorPlane": null,
          "renderList": null,
          "animations": [],
          "extensions": null,
          "samplingMode": 3
        }
      }
    }
  ],
  "textures": [
    {
      "sampler": 0,
      "source": 0,
      "name": "color_ceramic.jpg"
    },
    {
      "sampler": 0,
      "source": 1,
      "name": "color_white.jpg"
    },
    {
      "sampler": 0,
      "source": 2,
      "name": "spray_bathtub_albedo.jpg"
    }
  ],
  "images": [
    {
      "uri": "color_ceramic.jpg"
    },
    {
      "uri": "color_white.jpg"
    },
    {
      "uri": "spray_bathtub_albedo.jpg"
    }
  ],
  "samplers": [
    {
      "magFilter": 9729,
      "minFilter": 9987
    }
  ]
}